<?xml version="1.0" encoding="UTF-8"?>
<svg version="1.1" xmlns="http://www.w3.org/2000/svg" width="124" height="94">
<path d="M0 0 C2.27979699 0.73758138 4.29809893 1.61092302 6.390625 2.7734375 C6.390625 3.4334375 6.390625 4.0934375 6.390625 4.7734375 C7.380625 5.1034375 8.370625 5.4334375 9.390625 5.7734375 C9.390625 6.4334375 9.390625 7.0934375 9.390625 7.7734375 C11.80104008 8.63238274 12.94768531 8.95660143 15.35546875 7.9609375 C16.66866194 7.1704212 17.98116497 6.37875728 19.29296875 5.5859375 C22.13096185 4.4866776 23.5604817 4.68246291 26.390625 5.7734375 C27.97265625 7.98828125 27.97265625 7.98828125 29.203125 10.7109375 C29.62207031 11.60683594 30.04101562 12.50273437 30.47265625 13.42578125 C31.390625 15.7734375 31.390625 15.7734375 31.390625 17.7734375 C31.94492188 17.61359375 32.49921875 17.45375 33.0703125 17.2890625 C35.60084088 16.72672286 37.92475051 16.56984122 40.515625 16.5234375 C41.38445312 16.49765625 42.25328125 16.471875 43.1484375 16.4453125 C43.88835937 16.55359375 44.62828125 16.661875 45.390625 16.7734375 C47.84454069 20.45431103 47.61865259 23.21699338 47.515625 27.4609375 C47.50660156 28.16283203 47.49757813 28.86472656 47.48828125 29.58789062 C47.46476204 31.31655275 47.42889213 33.04503895 47.390625 34.7734375 C48.504375 34.9178125 49.618125 35.0621875 50.765625 35.2109375 C54.390625 35.7734375 54.390625 35.7734375 56.390625 36.7734375 C56.81651523 42.31001044 55.295872 46.67009733 53.390625 51.7734375 C54.23625 52.4953125 55.081875 53.2171875 55.953125 53.9609375 C58.390625 56.7734375 58.390625 56.7734375 58.640625 59.1484375 C56.75447575 63.10935092 53.8018778 66.03970835 50.390625 68.7734375 C49.730625 68.7734375 49.070625 68.7734375 48.390625 68.7734375 C47.895625 70.2584375 47.895625 70.2584375 47.390625 71.7734375 C46.730625 71.7734375 46.070625 71.7734375 45.390625 71.7734375 C45.390625 72.4334375 45.390625 73.0934375 45.390625 73.7734375 C38.20898669 79.59638748 29.36871719 82.48857002 20.15625 82.09375 C11.98763777 81.14766779 5.75129576 79.00332234 -0.609375 73.7734375 C-1.2384375 74.18335937 -1.8675 74.59328125 -2.515625 75.015625 C-11.88651985 80.91477266 -20.06612921 83.2169967 -31.15234375 81.34375 C-39.53145779 79.23922833 -45.84259751 74.07034476 -51.609375 67.7734375 C-51.609375 67.1134375 -51.609375 66.4534375 -51.609375 65.7734375 C-52.186875 65.5259375 -52.764375 65.2784375 -53.359375 65.0234375 C-55.99226182 63.5607226 -57.73388169 62.13516981 -59.609375 59.7734375 C-59.609375 56.74525904 -58.65879632 55.82435644 -56.546875 53.6484375 C-55.5878125 52.7203125 -55.5878125 52.7203125 -54.609375 51.7734375 C-54.83753906 51.02578125 -55.06570312 50.278125 -55.30078125 49.5078125 C-55.58824219 48.52296875 -55.87570313 47.538125 -56.171875 46.5234375 C-56.46191406 45.54890625 -56.75195312 44.574375 -57.05078125 43.5703125 C-57.61100972 40.76525245 -57.84783774 39.34210096 -56.609375 36.7734375 C-54.76171875 35.7265625 -54.76171875 35.7265625 -52.546875 35.0234375 C-51.81339844 34.78109375 -51.07992187 34.53875 -50.32421875 34.2890625 C-49.75832031 34.11890625 -49.19242188 33.94875 -48.609375 33.7734375 C-48.62097656 33.12117188 -48.63257813 32.46890625 -48.64453125 31.796875 C-48.74364411 22.19708701 -48.74364411 22.19708701 -47.609375 17.7734375 C-44.72521617 16.33135809 -42.19215972 16.67948863 -38.984375 16.7109375 C-37.79585937 16.71996094 -36.60734375 16.72898437 -35.3828125 16.73828125 C-34.46757813 16.74988281 -33.55234375 16.76148437 -32.609375 16.7734375 C-32.27164063 16.07476563 -31.93390625 15.37609375 -31.5859375 14.65625 C-31.13992187 13.74617188 -30.69390625 12.83609375 -30.234375 11.8984375 C-29.79351562 10.99351563 -29.35265625 10.08859375 -28.8984375 9.15625 C-27.609375 6.7734375 -27.609375 6.7734375 -25.609375 4.7734375 C-21.02399951 5.02818058 -18.02275853 5.63312465 -14.609375 8.7734375 C-10.5134321 6.97633115 -7.84914453 4.25384504 -4.70703125 1.13671875 C-2.609375 -0.2265625 -2.609375 -0.2265625 0 0 Z M28.390625 59.7734375 C29.390625 61.7734375 29.390625 61.7734375 29.390625 61.7734375 Z " fill="#B26C90" transform="translate(63.609375,5.2265625)"/>
<path d="M0 0 C5.58636367 2.39415586 8.42154712 6.31272003 11.25 11.5625 C12.03117187 12.98755859 12.03117187 12.98755859 12.828125 14.44140625 C14 17 14 17 14 20 C15.98 20.33 17.96 20.66 20 21 C20.09796875 20.39542969 20.1959375 19.79085937 20.296875 19.16796875 C21.50792734 15.4338907 24.69014495 13.85351883 28 12 C30.9375 11.1875 30.9375 11.1875 33 11 C33 12.65 33 14.3 33 16 C33.99 16 34.98 16 36 16 C37.21445591 18.42891182 37.12924198 20.00719443 37.1328125 22.71875 C37.13474609 24.11673828 37.13474609 24.11673828 37.13671875 25.54296875 C37.13285156 26.51878906 37.12898438 27.49460937 37.125 28.5 C37.13080078 29.96373047 37.13080078 29.96373047 37.13671875 31.45703125 C37.13542969 32.38902344 37.13414063 33.32101563 37.1328125 34.28125 C37.13168457 35.13783203 37.13055664 35.99441406 37.12939453 36.87695312 C37 39 37 39 36 41 C36.73605469 40.97679687 37.47210938 40.95359375 38.23046875 40.9296875 C39.20628906 40.91164062 40.18210937 40.89359375 41.1875 40.875 C42.15042969 40.85179687 43.11335938 40.82859375 44.10546875 40.8046875 C47.12812778 41.0086456 49.26769985 41.73125368 52 43 C51.49477778 47.37859255 48.82172778 49.81651224 46 53 C46.99 53.5775 47.98 54.155 49 54.75 C49.99 55.4925 50.98 56.235 52 57 C52 58.32 52 59.64 52 61 C51.34 61 50.68 61 50 61 C49.67 61.99 49.34 62.98 49 64 C48.34 64 47.68 64 47 64 C47 64.66 47 65.32 47 66 C40.18289907 71.15439339 33.63056345 73.91403116 25 73 C24.01 72.505 24.01 72.505 23 72 C23 70.35 23 68.7 23 67 C14.585 67.495 14.585 67.495 6 68 C5.67 67.01 5.34 66.02 5 65 C5.71027344 64.79503906 6.42054687 64.59007813 7.15234375 64.37890625 C8.07144531 64.10949219 8.99054688 63.84007812 9.9375 63.5625 C10.85402344 63.29566406 11.77054688 63.02882812 12.71484375 62.75390625 C14.9402493 62.20973949 14.9402493 62.20973949 16 61 C16.07244053 58.98035801 16.08377188 56.95832876 16.0625 54.9375 C16.05347656 53.83277344 16.04445312 52.72804687 16.03515625 51.58984375 C16.02355469 50.73519531 16.01195312 49.88054688 16 49 C15.34 49 14.68 49 14 49 C14.67398142 44.82131523 15.98107476 40.96775368 17.37890625 36.98828125 C18.0993894 35.02900079 18.0993894 35.02900079 18 33 C17.34 33 16.68 33 16 33 C16 34.32 16 35.64 16 37 C15.34 37 14.68 37 14 37 C13.814375 38.3921875 13.814375 38.3921875 13.625 39.8125 C13 43 13 43 11 46 C10.34 46 9.68 46 9 46 C8.83287252 43.85420251 8.66631 41.70836101 8.5 39.5625 C8.4071875 38.36753906 8.314375 37.17257813 8.21875 35.94140625 C8 33 8 33 8 32 C7.01 32 6.02 32 5 32 C3.96986723 30.35178756 2.96885372 28.68496298 2 27 C1.34 27 0.68 27 0 27 C-0.33 27.99 -0.66 28.98 -1 30 C-0.67 29.34 -0.34 28.68 0 28 C3.56090245 29.18696748 4.45671875 30.64008178 6.19726562 33.88330078 C7.63964595 37.68665767 7.41813893 41.42479979 7.25 45.4375 C7.23195312 46.26443359 7.21390625 47.09136719 7.1953125 47.94335938 C7.1486214 49.96274933 7.07689393 51.98153445 7 54 C7.33 52.68 7.66 51.36 8 50 C8.66 50 9.32 50 10 50 C10 54.29 10 58.58 10 63 C7.69 63 5.38 63 3 63 C2.67 62.01 2.34 61.02 2 60 C1.01 60 0.02 60 -1 60 C-1.99 58.02 -2.98 56.04 -4 54 C-3.71125 54.721875 -3.4225 55.44375 -3.125 56.1875 C-1.5625 60.09375 -1.5625 60.09375 0 64 C-2.64 63.67 -5.28 63.34 -8 63 C-6.02 62.505 -6.02 62.505 -4 62 C-4.45375 61.278125 -4.9075 60.55625 -5.375 59.8125 C-6.85494358 57.25105919 -7.97217539 54.76722011 -9 52 C-9.58007812 52.04640625 -10.16015625 52.0928125 -10.7578125 52.140625 C-16.41230827 52.40188883 -19.52891958 51.81677597 -24 48 C-26 45 -26 45 -25.9375 41.625 C-24.83768513 37.37238249 -23.38681133 35.7259701 -20 33 C-19.34 33 -18.68 33 -18 33 C-17.67 29.7 -17.34 26.4 -17 23 C-15.68 23 -14.36 23 -13 23 C-12.01 19.7 -11.02 16.4 -10 13 C-9.34 13 -8.68 13 -8 13 C-7.7525 12.484375 -7.505 11.96875 -7.25 11.4375 C-2.84210526 2.84210526 -2.84210526 2.84210526 0 0 Z M30 52 C31 54 31 54 31 54 Z " fill="#442B4D" transform="translate(62,13)"/>
<path d="M0 0 C2.27979699 0.73758138 4.29809893 1.61092302 6.390625 2.7734375 C6.390625 3.4334375 6.390625 4.0934375 6.390625 4.7734375 C7.380625 5.1034375 8.370625 5.4334375 9.390625 5.7734375 C9.390625 6.4334375 9.390625 7.0934375 9.390625 7.7734375 C11.80104008 8.63238274 12.94768531 8.95660143 15.35546875 7.9609375 C16.66866194 7.1704212 17.98116497 6.37875728 19.29296875 5.5859375 C22.13096185 4.4866776 23.5604817 4.68246291 26.390625 5.7734375 C27.97265625 7.98828125 27.97265625 7.98828125 29.203125 10.7109375 C29.62207031 11.60683594 30.04101562 12.50273437 30.47265625 13.42578125 C31.390625 15.7734375 31.390625 15.7734375 31.390625 17.7734375 C31.94492188 17.61359375 32.49921875 17.45375 33.0703125 17.2890625 C35.60084088 16.72672286 37.92475051 16.56984122 40.515625 16.5234375 C41.38445312 16.49765625 42.25328125 16.471875 43.1484375 16.4453125 C43.88835937 16.55359375 44.62828125 16.661875 45.390625 16.7734375 C47.84454069 20.45431103 47.61865259 23.21699338 47.515625 27.4609375 C47.50660156 28.16283203 47.49757813 28.86472656 47.48828125 29.58789062 C47.46476204 31.31655275 47.42889213 33.04503895 47.390625 34.7734375 C48.504375 34.9178125 49.618125 35.0621875 50.765625 35.2109375 C54.390625 35.7734375 54.390625 35.7734375 56.390625 36.7734375 C56.81651523 42.31001044 55.295872 46.67009733 53.390625 51.7734375 C54.23625 52.4953125 55.081875 53.2171875 55.953125 53.9609375 C58.390625 56.7734375 58.390625 56.7734375 58.640625 59.2109375 C56.77475551 63.03596995 53.73627797 65.23144007 50.390625 67.7734375 C50.390625 66.7834375 50.390625 65.7934375 50.390625 64.7734375 C47.420625 63.7834375 44.450625 62.7934375 41.390625 61.7734375 C42.133125 61.2578125 42.875625 60.7421875 43.640625 60.2109375 C47.09232022 57.41390989 47.09232022 57.41390989 50.390625 50.7734375 C45.110625 50.1134375 39.830625 49.4534375 34.390625 48.7734375 C34.390625 40.5234375 34.390625 32.2734375 34.390625 23.7734375 C33.400625 23.7734375 32.410625 23.7734375 31.390625 23.7734375 C30.895625 21.7934375 30.895625 21.7934375 30.390625 19.7734375 C24.49387281 22.09589295 24.49387281 22.09589295 19.390625 25.7734375 C18.895625 27.2584375 18.895625 27.2584375 18.390625 28.7734375 C15.703125 28.8984375 15.703125 28.8984375 12.390625 27.7734375 C10.82238291 25.39203285 9.70713426 22.95470827 8.546875 20.3515625 C6.56165817 15.92506552 4.02177729 12.04147456 0.390625 8.7734375 C-3.56181736 10.09091829 -4.08055366 11.79921048 -6.171875 15.3359375 C-7.26473019 17.18086509 -8.39914169 19.00328903 -9.609375 20.7734375 C-10.269375 20.7734375 -10.929375 20.7734375 -11.609375 20.7734375 C-12.269375 24.0734375 -12.929375 27.3734375 -13.609375 30.7734375 C-17.78093843 29.52196847 -21.419123 27.90523554 -25.19140625 25.7734375 C-28.82785505 24.26951037 -32.76791374 23.62709556 -36.609375 22.7734375 C-36.609375 31.3534375 -36.609375 39.9334375 -36.609375 48.7734375 C-41.609375 47.7734375 -41.609375 47.7734375 -43.12109375 45.62890625 C-43.50910156 44.74847656 -43.89710937 43.86804687 -44.296875 42.9609375 C-44.89048828 41.65189453 -44.89048828 41.65189453 -45.49609375 40.31640625 C-45.86347656 39.47722656 -46.23085938 38.63804688 -46.609375 37.7734375 C-46.98320313 37.10699219 -47.35703125 36.44054688 -47.7421875 35.75390625 C-49.99582925 30.60707576 -48.96762984 23.07063138 -47.609375 17.7734375 C-44.72521617 16.33135809 -42.19215972 16.67948863 -38.984375 16.7109375 C-37.79585937 16.71996094 -36.60734375 16.72898437 -35.3828125 16.73828125 C-34.46757813 16.74988281 -33.55234375 16.76148437 -32.609375 16.7734375 C-32.27164063 16.07476563 -31.93390625 15.37609375 -31.5859375 14.65625 C-31.13992187 13.74617188 -30.69390625 12.83609375 -30.234375 11.8984375 C-29.79351562 10.99351563 -29.35265625 10.08859375 -28.8984375 9.15625 C-27.609375 6.7734375 -27.609375 6.7734375 -25.609375 4.7734375 C-21.02399951 5.02818058 -18.02275853 5.63312465 -14.609375 8.7734375 C-10.5134321 6.97633115 -7.84914453 4.25384504 -4.70703125 1.13671875 C-2.609375 -0.2265625 -2.609375 -0.2265625 0 0 Z " fill="#F59C5B" transform="translate(63.609375,5.2265625)"/>
<path d="M0 0 C1.21445591 2.42891182 1.12924198 4.00719443 1.1328125 6.71875 C1.13474609 8.11673828 1.13474609 8.11673828 1.13671875 9.54296875 C1.13285156 10.51878906 1.12898438 11.49460937 1.125 12.5 C1.13080078 13.96373047 1.13080078 13.96373047 1.13671875 15.45703125 C1.13542969 16.38902344 1.13414063 17.32101563 1.1328125 18.28125 C1.13168457 19.13783203 1.13055664 19.99441406 1.12939453 20.87695312 C1 23 1 23 0 25 C0.73605469 24.97679688 1.47210938 24.95359375 2.23046875 24.9296875 C3.20628906 24.91164063 4.18210938 24.89359375 5.1875 24.875 C6.63189453 24.84019531 6.63189453 24.84019531 8.10546875 24.8046875 C11.12812778 25.0086456 13.26769985 25.73125368 16 27 C15.49477778 31.37859255 12.82172778 33.81651224 10 37 C10.99 37.5775 11.98 38.155 13 38.75 C13.99 39.4925 14.98 40.235 16 41 C16 42.32 16 43.64 16 45 C15.34 45 14.68 45 14 45 C13.67 45.99 13.34 46.98 13 48 C12.34 48 11.68 48 11 48 C11 48.66 11 49.32 11 50 C4.18289907 55.15439339 -2.36943655 57.91403116 -11 57 C-11.66 56.67 -12.32 56.34 -13 56 C-13 54.35 -13 52.7 -13 51 C-21.415 51.495 -21.415 51.495 -30 52 C-30.495 50.515 -30.495 50.515 -31 49 C-30.28972656 48.79503906 -29.57945313 48.59007812 -28.84765625 48.37890625 C-27.92855469 48.10949219 -27.00945312 47.84007812 -26.0625 47.5625 C-25.14597656 47.29566406 -24.22945313 47.02882812 -23.28515625 46.75390625 C-21.0597507 46.20973949 -21.0597507 46.20973949 -20 45 C-19.92755947 42.98035801 -19.91622812 40.95832876 -19.9375 38.9375 C-19.94652344 37.83277344 -19.95554687 36.72804687 -19.96484375 35.58984375 C-19.97644531 34.73519531 -19.98804687 33.88054688 -20 33 C-20.66 33 -21.32 33 -22 33 C-21.48206969 29.78883205 -20.60099756 26.95600781 -19.4375 23.9375 C-18.03909309 20.00612963 -17.96457591 16.84199446 -18.1875 12.6875 C-18.26171875 9.609375 -18.26171875 9.609375 -18 7 C-15.5 4.4375 -15.5 4.4375 -12 3 C-11.32710937 2.70738281 -10.65421875 2.41476563 -9.9609375 2.11328125 C-6.31963963 0.60630217 -4.03938861 0 0 0 Z M-6 36 C-5 38 -5 38 -5 38 Z " fill="#422A4C" transform="translate(98,29)"/>
<path d="M0 0 C0.86882812 -0.02578125 1.73765625 -0.0515625 2.6328125 -0.078125 C3.74269531 0.08429687 3.74269531 0.08429687 4.875 0.25 C7.32891569 3.93087353 7.10302759 6.69355588 7 10.9375 C6.99097656 11.63939453 6.98195313 12.34128906 6.97265625 13.06445312 C6.94913704 14.79311525 6.91326713 16.52160145 6.875 18.25 C7.98875 18.394375 9.1025 18.53875 10.25 18.6875 C13.875 19.25 13.875 19.25 15.875 20.25 C16.30089023 25.78657294 14.780247 30.14665983 12.875 35.25 C13.720625 35.971875 14.56625 36.69375 15.4375 37.4375 C17.875 40.25 17.875 40.25 18.125 42.6875 C16.25913051 46.51253245 13.22065297 48.70800257 9.875 51.25 C9.875 50.26 9.875 49.27 9.875 48.25 C6.905 47.26 3.935 46.27 0.875 45.25 C1.6175 44.734375 2.36 44.21875 3.125 43.6875 C6.57669522 40.89047239 6.57669522 40.89047239 9.875 34.25 C4.595 33.59 -0.685 32.93 -6.125 32.25 C-6.125 24 -6.125 15.75 -6.125 7.25 C-7.115 7.25 -8.105 7.25 -9.125 7.25 C-9.125 5.27 -9.125 3.29 -9.125 1.25 C-6.04344479 0.36136547 -3.20456404 0.05739518 0 0 Z " fill="#F49B5A" transform="translate(104.125,21.75)"/>
<path d="M0 0 C1.31751827 0.84640567 2.62984878 1.70092863 3.9375 2.5625 C7.905812 5.12344553 11.37226469 6.08962584 16 7 C17.485 7.309375 17.485 7.309375 19 7.625 C19.66 7.74875 20.32 7.8725 21 8 C20.9375 10.8125 20.9375 10.8125 20 14 C11.65254041 18.655314 2.13334122 19.27226966 -7.0625 16.9375 C-12.58053338 15.11846376 -16.72062739 11.85056022 -21 8 C-21.57492188 7.484375 -22.14984375 6.96875 -22.7421875 6.4375 C-24 5 -24 5 -24.1875 2.5 C-23 0 -23 0 -19.4375 -1.8125 C-12.31792786 -4.03736629 -6.70899115 -3.47429899 0 0 Z " fill="#5D566E" transform="translate(37,69)"/>
<path d="M0 0 C0.66 0.33 1.32 0.66 2 1 C1.98839844 2.02480469 1.97679687 3.04960938 1.96484375 4.10546875 C1.95545978 5.466144 1.94636023 6.82682124 1.9375 8.1875 C1.92912109 8.86103516 1.92074219 9.53457031 1.91210938 10.22851562 C1.89393462 13.95434131 2.10700608 17.3788042 3 21 C3.66 21 4.32 21 5 21 C5 21.99 5 22.98 5 24 C5.99 24 6.98 24 8 24 C8 24.66 8 25.32 8 26 C9.32 26 10.64 26 12 26 C12 22.37 12 18.74 12 15 C12.99 14.67 13.98 14.34 15 14 C15.99 14.99 16.98 15.98 18 17 C18.33 16.34 18.66 15.68 19 15 C19 15.66 19 16.32 19 17 C19.66 17 20.32 17 21 17 C21 15.68 21 14.36 21 13 C21.99 13 22.98 13 24 13 C24 18.94 24 24.88 24 31 C24.33 29.68 24.66 28.36 25 27 C25.66 27 26.32 27 27 27 C27 31.29 27 35.58 27 40 C24.69 40 22.38 40 20 40 C19.67 39.01 19.34 38.02 19 37 C18.01 37 17.02 37 16 37 C15.01 35.02 14.02 33.04 13 31 C13.28875 31.721875 13.5775 32.44375 13.875 33.1875 C14.91666667 35.79166667 15.95833333 38.39583333 17 41 C14.36 40.67 11.72 40.34 9 40 C10.98 39.505 10.98 39.505 13 39 C12.54625 38.278125 12.0925 37.55625 11.625 36.8125 C10.14505642 34.25105919 9.02782461 31.76722011 8 29 C7.41992188 29.04640625 6.83984375 29.0928125 6.2421875 29.140625 C0.58769173 29.40188883 -2.52891958 28.81677597 -7 25 C-9 22 -9 22 -8.9375 18.625 C-7.83768513 14.37238249 -6.38681133 12.7259701 -3 10 C-2.34 10 -1.68 10 -1 10 C-0.67 6.7 -0.34 3.4 0 0 Z " fill="#432B4C" transform="translate(45,36)"/>
<path d="M0 0 C1.84000236 3.68000471 1.27102117 8.01140124 1.3125 12.0625 C1.34150391 12.97966797 1.37050781 13.89683594 1.40039062 14.84179688 C1.46149153 21.47359554 0.12069394 26.18223247 -3 32 C-3.66880136 33.33226385 -4.33609714 34.66528834 -5 36 C-6.65 36 -8.3 36 -10 36 C-8.9559635 29.31816637 -7.5957524 23.2534035 -5 17 C-5.66 17 -6.32 17 -7 17 C-6.67 16.29875 -6.34 15.5975 -6 14.875 C-4.90955438 11.73996884 -4.84677357 9.29436818 -5 6 C-5.99 6 -6.98 6 -8 6 C-8 8.97 -8 11.94 -8 15 C-8.99 15 -9.98 15 -11 15 C-11.19335938 16.25554688 -11.38671875 17.51109375 -11.5859375 18.8046875 C-12.89530158 27.24103395 -14.2199292 35.64736007 -16 44 C-17.98 44.495 -17.98 44.495 -20 45 C-20 41.04 -20 37.08 -20 33 C-20.66 33 -21.32 33 -22 33 C-21.48206969 29.78883205 -20.60099756 26.95600781 -19.4375 23.9375 C-18.03909309 20.00612963 -17.96457591 16.84199446 -18.1875 12.6875 C-18.26171875 9.609375 -18.26171875 9.609375 -18 7 C-15.5 4.4375 -15.5 4.4375 -12 3 C-10.99066406 2.56107422 -10.99066406 2.56107422 -9.9609375 2.11328125 C-6.31963963 0.60630217 -4.03938861 0 0 0 Z " fill="#40284B" transform="translate(98,29)"/>
<path d="M0 0 C5.27749285 0.53851968 9.25645564 1.77343836 14 4 C14 7.3 14 10.6 14 14 C13.01 14.495 13.01 14.495 12 15 C12 13.68 12 12.36 12 11 C11.34 11 10.68 11 10 11 C10 10.34 10 9.68 10 9 C5.56530813 9.34684986 5.56530813 9.34684986 2.125 11.9375 C0.84038262 13.90107048 0.84038262 13.90107048 1 16 C3.64 16.66 6.28 17.32 9 18 C8.2265625 19.0209375 8.2265625 19.0209375 7.4375 20.0625 C5.55700374 23.90525323 5.88490612 25.91132242 7 30 C8.89111111 32.3181362 10.33828031 33.66914015 13 35 C14.64480884 35.10156624 16.29094949 35.18230042 17.9375 35.25 C22.71258466 35.6703177 22.71258466 35.6703177 25.125 38.4375 C26 41 26 41 26 43 C25.34 43.66 24.68 44.32 24 45 C21.875 44.625 21.875 44.625 20 44 C20.33 43.34 20.66 42.68 21 42 C20.030625 42.144375 19.06125 42.28875 18.0625 42.4375 C13.44801523 42.38145363 10.61032825 40.29486896 7.15234375 37.3984375 C-0.13477283 29.27812974 -2.24786572 18.9924217 -2.16796875 8.4140625 C-1.95695623 5.38137097 -1.17652956 2.79425772 0 0 Z " fill="#442D4F" transform="translate(29,30)"/>
<path d="M0 0 C1.6171875 2.14453125 1.6171875 2.14453125 2.875 4.8125 C3.30554688 5.68519531 3.73609375 6.55789062 4.1796875 7.45703125 C5.06947273 10.21536545 5.23559461 11.39088393 4 14 C1.70401807 15.08301035 -0.63477442 16.07796291 -3 17 C-6.09544702 18.95501917 -6.81974864 19.45924593 -8 23 C-10.6875 23.125 -10.6875 23.125 -14 22 C-16.09464779 18.84694552 -17.54437916 15.48537101 -19 12 C-19.33 11.34 -19.66 10.68 -20 10 C-19.46890625 9.61328125 -18.9378125 9.2265625 -18.390625 8.828125 C-15.32106866 6.56516741 -12.38855691 4.38855691 -9.6875 1.6875 C-6.62183945 -1.37816055 -3.91506151 -1.35615767 0 0 Z " fill="#E6749F" transform="translate(90,11)"/>
<path d="M0 0 C0.64690922 1.6037331 1.29248764 3.20800306 1.9375 4.8125 C2.29714844 5.70582031 2.65679687 6.59914063 3.02734375 7.51953125 C3.73613486 9.3270909 4.3860247 11.15807409 5 13 C5.66 13.33 6.32 13.66 7 14 C3.37 14.66 -0.26 15.32 -4 16 C-2.95475221 20.18099116 -2.5894258 20.72845936 0.5625 23.25 C1.20316406 23.77078125 1.84382813 24.2915625 2.50390625 24.828125 C3.24447266 25.40820312 3.24447266 25.40820312 4 26 C1 28 1 28 -1.0625 28.9375 C-3.32261104 29.98251298 -3.32261104 29.98251298 -5 33 C-5 32.34 -5 31.68 -5 31 C-5.5775 30.7525 -6.155 30.505 -6.75 30.25 C-9.38288682 28.7872851 -11.12450669 27.36173231 -13 25 C-13 21.97182154 -12.04942132 21.05091894 -9.9375 18.875 C-9.298125 18.25625 -8.65875 17.6375 -8 17 C-8.22816406 16.25234375 -8.45632812 15.5046875 -8.69140625 14.734375 C-9.12259766 13.25710937 -9.12259766 13.25710937 -9.5625 11.75 C-9.85253906 10.77546875 -10.14257812 9.8009375 -10.44140625 8.796875 C-10.99628909 6.01858048 -11.05122134 4.59852466 -10 2 C-6.82026536 -0.35535899 -3.84875379 -0.17494335 0 0 Z " fill="#E3BED6" transform="translate(17,40)"/>
<path d="M0 0 C1.45880109 0.14107747 2.91703551 0.28802415 4.375 0.4375 C5.59316406 0.55931641 5.59316406 0.55931641 6.8359375 0.68359375 C9 1 9 1 11 2 C11.42589023 7.53657294 9.905247 11.89665983 8 17 C9.2684375 18.0828125 9.2684375 18.0828125 10.5625 19.1875 C13 22 13 22 13.25 24.4375 C11.38413051 28.26253245 8.34565297 30.45800257 5 33 C5 32.01 5 31.02 5 30 C2.03 29.01 -0.94 28.02 -4 27 C-3.2575 26.484375 -2.515 25.96875 -1.75 25.4375 C1.53628545 22.52465608 2.98763759 19.87566094 5 16 C1.37 15.34 -2.26 14.68 -6 14 C-5.195625 12.80375 -4.39125 11.6075 -3.5625 10.375 C-1.38664103 6.92067022 -0.30990869 4.13211585 0 0 Z " fill="#E2BDD6" transform="translate(109,40)"/>
<path d="M0 0 C1.98 0.495 1.98 0.495 4 1 C4 1.66 4 2.32 4 3 C4.61875 3.268125 5.2375 3.53625 5.875 3.8125 C8 5 8 5 10 8 C10.99 8.33 11.98 8.66 13 9 C13.66 7.35 14.32 5.7 15 4 C18.75376152 5.25125384 19.24073289 6.5652404 21 10 C21 10.66 21 11.32 21 12 C20.34 12 19.68 12 19 12 C19 13.32 19 14.64 19 16 C16.625 16.125 16.625 16.125 14 16 C13.34 15.34 12.68 14.68 12 14 C10.85185003 16.29629994 10.69230191 18.07698086 10.4375 20.625 C10.35371094 21.44226563 10.26992188 22.25953125 10.18359375 23.1015625 C10.12300781 23.72804688 10.06242187 24.35453125 10 25 C8.68 25 7.36 25 6 25 C6 24.34 6 23.68 6 23 C5.01 23 4.02 23 3 23 C3 22.01 3 21.02 3 20 C2.34 20 1.68 20 1 20 C-1.2838943 13.29106049 -1.94654051 6.89853955 0 0 Z " fill="#462D4A" transform="translate(47,37)"/>
<path d="M0 0 C3.625 1.125 3.625 1.125 9.625 6.125 C7.315 10.745 5.005 15.365 2.625 20.125 C1.305 19.465 -0.015 18.805 -1.375 18.125 C-2.95461754 17.40841854 -4.53802488 16.70013608 -6.125 16 C-6.92421875 15.64679687 -7.7234375 15.29359375 -8.546875 14.9296875 C-9.15015625 14.66414063 -9.7534375 14.39859375 -10.375 14.125 C-6.38087228 0.2363286 -6.38087228 0.2363286 0 0 Z " fill="#E6729E" transform="translate(41.375,9.875)"/>
<path d="M0 0 C0.06058594 0.96421875 0.12117188 1.9284375 0.18359375 2.921875 C0.30927734 4.81679687 0.30927734 4.81679687 0.4375 6.75 C0.55931641 8.62945312 0.55931641 8.62945312 0.68359375 10.546875 C0.92515522 13.18317553 1.24283934 15.48037294 2 18 C-5.463916 17.37670848 -9.88696072 15.09444856 -15.48046875 10.16796875 C-17 8 -17 8 -16.9609375 5.3515625 C-16 3 -16 3 -12.4375 1.1875 C-8.18520064 -0.18123289 -4.43826236 -0.23776406 0 0 Z " fill="#432C4E" transform="translate(30,66)"/>
<path d="M0 0 C2 1.8125 2 1.8125 4 4 C4 4.99 4 5.98 4 7 C5.65 6.34 7.3 5.68 9 5 C8.89171875 5.85271484 8.89171875 5.85271484 8.78125 6.72265625 C8.20416899 11.52364968 7.89714162 16.16565627 8 21 C8.66 21 9.32 21 10 21 C10.99 18.03 11.98 15.06 13 12 C13.66 12 14.32 12 15 12 C14.67 10.68 14.34 9.36 14 8 C15.32 8 16.64 8 18 8 C17.02541328 13.80165739 15.98746845 18.83982722 13 24 C13.66 24 14.32 24 15 24 C15.33 28.29 15.66 32.58 16 37 C13.03 37.66 10.06 38.32 7 39 C7.99 38.505 7.99 38.505 9 38 C9 33.71 9 29.42 9 25 C8.34 25 7.68 25 7 25 C6.67 26.98 6.34 28.96 6 31 C4.89695095 27.74137417 4.99429095 24.72220404 5.11572266 21.31274414 C5.34348609 14.56893234 5.47608678 9.39763406 1 4 C0.34 3.67 -0.32 3.34 -1 3 C-1.66 4.65 -2.32 6.3 -3 8 C-3.33 7.01 -3.66 6.02 -4 5 C-2.0625 2.3125 -2.0625 2.3125 0 0 Z " fill="#AA7891" transform="translate(63,38)"/>
<path d="M0 0 C2.26071988 0.81154047 4.33878225 1.7090457 6.4375 2.875 C6.4375 3.535 6.4375 4.195 6.4375 4.875 C7.4275 5.205 8.4175 5.535 9.4375 5.875 C9.4375 6.535 9.4375 7.195 9.4375 7.875 C12.4075 8.37 12.4075 8.37 15.4375 8.875 C12.47589944 12.00113393 10.34182869 13.92283565 6.4375 15.875 C4.4575 13.565 2.4775 11.255 0.4375 8.875 C-2.70599841 9.9228328 -3.29501185 10.45413668 -5.25 12.9375 C-6.013125 13.906875 -6.77625 14.87625 -7.5625 15.875 C-9.5425 14.225 -11.5225 12.575 -13.5625 10.875 C-4.49391389 -0.21921531 -4.49391389 -0.21921531 0 0 Z " fill="#F6C265" transform="translate(63.5625,5.125)"/>
<path d="M0 0 C0.99 0.66 1.98 1.32 3 2 C3 2.66 3 3.32 3 4 C3.99 4 4.98 4 6 4 C7.60725635 7.21451269 7.05748185 10.43612536 7 14 C4.11484854 14.06709655 1.50196747 14.12210019 -1.3125 13.4375 C-5.28319612 12.79110761 -9.04001243 13.43921745 -13 14 C-13.25 7.375 -13.25 7.375 -11 4 C-10.34 4 -9.68 4 -9 4 C-9 3.34 -9 2.68 -9 2 C-5.53001271 -0.31332486 -4.07490752 -0.33957563 0 0 Z " fill="#C47A9C" transform="translate(66,22)"/>
<path d="M0 0 C0.99 0 1.98 0 3 0 C3.94693195 3.7016431 4.30443767 5.39112465 2.5625 8.875 C2.046875 9.57625 1.53125 10.2775 1 11 C1.66 11 2.32 11 3 11 C2.69964844 12.13179687 2.39929688 13.26359375 2.08984375 14.4296875 C1.70535854 15.91136221 1.32126416 17.39313837 0.9375 18.875 C0.73833984 19.62136719 0.53917969 20.36773437 0.33398438 21.13671875 C-0.93023112 25.12596726 -0.93023112 25.12596726 0 29 C0.66 29.33 1.32 29.66 2 30 C1.01508224 33.64419572 0.34173648 34.78914132 -2.9375 36.8125 C-6 38 -6 38 -9 38 C-8.24846093 33.55900621 -7.47050713 29.12304469 -6.6875 24.6875 C-6.47416016 23.42486328 -6.26082031 22.16222656 -6.04101562 20.86132812 C-5.82509766 19.65283203 -5.60917969 18.44433594 -5.38671875 17.19921875 C-5.19295654 16.08377686 -4.99919434 14.96833496 -4.79956055 13.8190918 C-3.97012327 10.89466059 -3.24794854 9.92898287 -1 8 C-0.42982192 5.95899762 -0.42982192 5.95899762 -0.3125 3.8125 C-0.1578125 1.9253125 -0.1578125 1.9253125 0 0 Z " fill="#335666" transform="translate(90,35)"/>
<path d="M0 0 C0.3125 2.3125 0.3125 2.3125 0 5 C-3.53104567 7.78203598 -7.86747133 9.28461074 -12 11 C-12.99 11.495 -12.99 11.495 -14 12 C-13.938125 13.27875 -13.87625 14.5575 -13.8125 15.875 C-13.70703125 18.0546875 -13.70703125 18.0546875 -14 20 C-14.99 20.66 -15.98 21.32 -17 22 C-17 23.32 -17 24.64 -17 26 C-17.66 26 -18.32 26 -19 26 C-19.12375 26.928125 -19.2475 27.85625 -19.375 28.8125 C-20 32 -20 32 -22 35 C-22.66 35 -23.32 35 -24 35 C-25.76046729 22.10266355 -25.76046729 22.10266355 -23.25 18.375 C-21.9632678 17.01678268 -20.66017928 15.67276523 -19.3125 14.375 C-17.69306938 12.67845363 -17.3931913 11.28050956 -17 9 C-15.68 9.33 -14.36 9.66 -13 10 C-12.90332031 9.39542969 -12.80664062 8.79085937 -12.70703125 8.16796875 C-11.84828226 5.53478816 -10.95231589 4.84985897 -8.6875 3.3125 C-8.09324219 2.89613281 -7.49898437 2.47976562 -6.88671875 2.05078125 C-4.70770259 0.83720911 -2.5276522 0 0 0 Z " fill="#C57289" transform="translate(95,24)"/>
<path d="M0 0 C1.89551022 -0.05441656 3.7914792 -0.09298035 5.6875 -0.125 C6.74324219 -0.14820313 7.79898438 -0.17140625 8.88671875 -0.1953125 C12.02251859 0.00141271 14.17645373 0.66942346 17 2 C16.61681009 5.32097921 15.2176133 8.182943 13.07421875 10.73828125 C8.28317549 13.652607 1.48462826 12.98620219 -4 13 C-3.29120484 8.14165647 -2.03597876 4.42604077 0 0 Z " fill="#349295" transform="translate(97,54)"/>
<path d="M0 0 C2.59609221 0.75355597 4.59195537 1.7191252 7 3 C7.66 3.33 8.32 3.66 9 4 C9 5.32 9 6.64 9 8 C8.34 8 7.68 8 7 8 C6.67 8.99 6.34 9.98 6 11 C5.34 11 4.68 11 4 11 C4 11.66 4 12.32 4 13 C0.62902617 14.49821059 -1.20442119 15 -5 15 C-5 13.68 -5 12.36 -5 11 C-5.66 11 -6.32 11 -7 11 C-7.3403125 9.329375 -7.3403125 9.329375 -7.6875 7.625 C-8.60623658 3.83961627 -8.60623658 3.83961627 -11.625 2.5625 C-12.40875 2.376875 -13.1925 2.19125 -14 2 C-9.53153354 -0.97897764 -5.24239606 -0.4971868 0 0 Z " fill="#442D4E" transform="translate(105,66)"/>
<path d="M0 0 C1.07765625 0.01804688 2.1553125 0.03609375 3.265625 0.0546875 C4.49539062 0.08949219 4.49539062 0.08949219 5.75 0.125 C6.42119549 1.5812545 7.08681807 3.04007867 7.75 4.5 C8.306875 5.71816406 8.306875 5.71816406 8.875 6.9609375 C9.75 9.125 9.75 9.125 9.75 11.125 C6.45 11.125 3.15 11.125 -0.25 11.125 C-0.58 11.785 -0.91 12.445 -1.25 13.125 C-2.5718362 12.05307816 -3.88217927 10.96697305 -5.1875 9.875 C-5.91839844 9.27171875 -6.64929688 8.6684375 -7.40234375 8.046875 C-9.35326334 6.01758866 -9.86731779 4.870593 -10.25 2.125 C-6.7733662 -0.01836161 -4.03770805 -0.08777626 0 0 Z " fill="#2C9093" transform="translate(22.25,53.875)"/>
<path d="M0 0 C1.32 0.66 2.64 1.32 4 2 C4.99 2.33 5.98 2.66 7 3 C6 5 5 7 4 9 C3.34 9 2.68 9 2 9 C1.34 12.3 0.68 15.6 0 19 C-4.29519677 17.71144097 -8.12832336 15.99493155 -12.09765625 13.953125 C-14.34765071 12.82581771 -16.6443931 11.88335259 -19 11 C-18.67 9.68 -18.34 8.36 -18 7 C-13.84747749 8.52259159 -9.9622724 10.0188638 -6 12 C-4.02 8.04 -2.04 4.08 0 0 Z " fill="#CD5A70" transform="translate(50,17)"/>
<path d="M0 0 C5.97006061 2.55859741 9.06809887 7.04306743 12.09375 12.60546875 C13.53700991 16.4189098 12.9257962 19.08316992 12 23 C11.67 23 11.34 23 11 23 C10.505 18.05 10.505 18.05 10 13 C9.01 13 8.02 13 7 13 C7 12.34 7 11.68 7 11 C5.56359829 10.80426392 4.12580496 10.61872184 2.6875 10.4375 C1.88699219 10.33308594 1.08648437 10.22867187 0.26171875 10.12109375 C-2.16817116 9.85244822 -2.16817116 9.85244822 -5 11 C-5 11.66 -5 12.32 -5 13 C-5.66 13 -6.32 13 -7 13 C-7.66 16.3 -8.32 19.6 -9 23 C-9.33 22.34 -9.66 21.68 -10 21 C-10.66 21 -11.32 21 -12 21 C-11.34 18.36 -10.68 15.72 -10 13 C-9.34 13 -8.68 13 -8 13 C-7.7525 12.484375 -7.505 11.96875 -7.25 11.4375 C-2.84210526 2.84210526 -2.84210526 2.84210526 0 0 Z " fill="#493152" transform="translate(62,13)"/>
<path d="M0 0 C1.32 0 2.64 0 4 0 C5.84000236 3.68000471 5.27102117 8.01140124 5.3125 12.0625 C5.34150391 12.97966797 5.37050781 13.89683594 5.40039062 14.84179688 C5.46149153 21.47359554 4.12069394 26.18223247 1 32 C0.33119864 33.33226385 -0.33609714 34.66528834 -1 36 C-2.65 36 -4.3 36 -6 36 C-4.9559635 29.31816637 -3.5957524 23.2534035 -1 17 C-0.01 17 0.98 17 2 17 C2 17.99 2 18.98 2 20 C2.66 20 3.32 20 4 20 C3.67 13.73 3.34 7.46 3 1 C2.01 0.67 1.02 0.34 0 0 Z " fill="#483554" transform="translate(94,29)"/>
<path d="M0 0 C6.61000431 0.30601872 11.24599828 1.83529905 17 5 C18.65697379 5.69040574 20.31923769 6.36971413 22 7 C21.67 7.99 21.34 8.98 21 10 C20.21496094 9.57847656 19.42992188 9.15695313 18.62109375 8.72265625 C10.6891284 4.55237113 10.6891284 4.55237113 2 3 C-1.04352556 14.41322084 1.91916778 24.92952451 7.13671875 35.14453125 C9.9803212 39.5023371 13.63981738 42.2482403 18 45 C17.01 45.495 17.01 45.495 16 46 C15.48953125 45.59007812 14.9790625 45.18015625 14.453125 44.7578125 C8.21360274 40.13348572 2.67036953 38.75276046 -5 38 C-5 37.67 -5 37.34 -5 37 C-1.7 37 1.6 37 5 37 C4.65066406 36.24074219 4.30132812 35.48148438 3.94140625 34.69921875 C3.48636719 33.70535156 3.03132813 32.71148437 2.5625 31.6875 C2.11003906 30.70136719 1.65757813 29.71523438 1.19140625 28.69921875 C-0.31097316 25.29546736 -1.12691763 22.63802808 -1.1328125 18.9453125 C-1.13410156 18.16542969 -1.13539062 17.38554688 -1.13671875 16.58203125 C-1.13285156 15.77121094 -1.12898438 14.96039063 -1.125 14.125 C-1.12886719 13.32191406 -1.13273437 12.51882812 -1.13671875 11.69140625 C-1.13008228 7.66306714 -1.00253888 3.93058896 0 0 Z " fill="#D7C2C9" transform="translate(27,28)"/>
<path d="M0 0 C3.53571429 0.53571429 3.53571429 0.53571429 5 2 C5.04080783 3.99958364 5.04254356 6.00045254 5 8 C5.66 8 6.32 8 7 8 C7 9.32 7 10.64 7 12 C9.31 11.34 11.62 10.68 14 10 C11.52414762 12.65269897 9.40973899 14.68010103 6 16 C5.01 16 4.02 16 3 16 C3 15.34 3 14.68 3 14 C0.69 13.67 -1.62 13.34 -4 13 C-4 11.35 -4 9.7 -4 8 C-3.34 8 -2.68 8 -2 8 C-2.04125 7.05125 -2.0825 6.1025 -2.125 5.125 C-2 2 -2 2 0 0 Z " fill="#86787A" transform="translate(93,69)"/>
<path d="M0 0 C0.61875 1.0828125 0.61875 1.0828125 1.25 2.1875 C3.41209199 5.66229071 5.78128078 7.49655171 9 10 C6 12 6 12 3.9375 12.9375 C1.67738896 13.98251298 1.67738896 13.98251298 0 17 C0 16.34 0 15.68 0 15 C-0.5775 14.7525 -1.155 14.505 -1.75 14.25 C-4.38288682 12.7872851 -6.12450669 11.36173231 -8 9 C-8.10446693 5.76152528 -6.72556776 4.69038414 -4.5625 2.25 C-2 0 -2 0 0 0 Z " fill="#81C9D6" transform="translate(12,56)"/>
<path d="M0 0 C5.75 2.625 5.75 2.625 8 6 C8.0625 8.3125 8.0625 8.3125 7 11 C4.82191355 13.20935085 2.46825791 15.12463955 0 17 C0 16.01 0 15.02 0 14 C-2.97 13.01 -5.94 12.02 -9 11 C-8.2575 10.484375 -7.515 9.96875 -6.75 9.4375 C-3.46371455 6.52465608 -2.01236241 3.87566094 0 0 Z " fill="#8ACFDC" transform="translate(114,56)"/>
<path d="M0 0 C0.33 0.99 0.66 1.98 1 3 C3.97 3 6.94 3 10 3 C10.82094351 8.47295676 8.8774805 11.21556954 5.80078125 15.4609375 C4 17 4 17 -1 17 C-0.67 11.39 -0.34 5.78 0 0 Z " fill="#CD5683" transform="translate(99,37)"/>
<path d="M0 0 C4.22716328 3.94535239 6.11463872 6.96590545 6.625 12.75 C6.69976562 13.54921875 6.77453125 14.3484375 6.8515625 15.171875 C6.92503906 16.07679687 6.92503906 16.07679687 7 17 C4.3125 17.125 4.3125 17.125 1 16 C-1.09464779 12.84694552 -2.54437916 9.48537101 -4 6 C-4.33 5.34 -4.66 4.68 -5 4 C-3.35 2.68 -1.7 1.36 0 0 Z " fill="#CD576E" transform="translate(75,17)"/>
<path d="M0 0 C6.27 0 12.54 0 19 0 C19 1.65 19 3.3 19 5 C21.31 5.33 23.62 5.66 26 6 C26 6.33 26 6.66 26 7 C18.3853297 7.39767137 11.08726981 7.07842514 4 4 C2.68 2.68 1.36 1.36 0 0 Z " fill="#C481A2" transform="translate(66,80)"/>
<path d="M0 0 C1.231394 3.69418201 0.64432764 6.2056261 0 10 C0.99 10.33 1.98 10.66 3 11 C2.01508224 14.64419572 1.34173648 15.78914132 -1.9375 17.8125 C-5 19 -5 19 -8 19 C-7.01 13.72 -6.02 8.44 -5 3 C-3.68 3.33 -2.36 3.66 -1 4 C-0.67 2.68 -0.34 1.36 0 0 Z " fill="#335F6C" transform="translate(89,54)"/>
<path d="M0 0 C2.97 0 5.94 0 9 0 C9.33 4.62 9.66 9.24 10 14 C5 13 5 13 3.41796875 10.8203125 C3.01191406 9.93085937 2.60585938 9.04140625 2.1875 8.125 C1.76855469 7.24070312 1.34960938 6.35640625 0.91796875 5.4453125 C0 3 0 3 0 0 Z " fill="#D45080" transform="translate(17,40)"/>
<path d="M0 0 C3.36087781 1.39070806 5.24895567 2.77585488 7 6 C7.07421875 9.015625 7.07421875 9.015625 6.6875 12.25 C6.56761719 13.32765625 6.44773437 14.4053125 6.32421875 15.515625 C6.21722656 16.33546875 6.11023437 17.1553125 6 18 C2.78303193 16.6212994 2.06448335 16.10895463 0.1875 12.9375 C-1.53192517 8.55573908 -0.85196495 4.52670535 0 0 Z " fill="#41284B" transform="translate(50,41)"/>
<path d="M0 0 C3.89750061 0.84112727 6.17412778 2.09563133 9 5 C9.4375 8.125 9.4375 8.125 9 11 C8.34 11.66 7.68 12.32 7 13 C3.9375 12.75 3.9375 12.75 1 12 C-0.26237731 9.47524538 -0.09856404 7.68799534 -0.0625 4.875 C-0.05347656 3.96492188 -0.04445312 3.05484375 -0.03515625 2.1171875 C-0.02355469 1.41851562 -0.01195312 0.71984375 0 0 Z " fill="#3C2548" transform="translate(33,68)"/>
<path d="M0 0 C4.16138263 -0.08159574 7.9472484 0.01751476 12 1 C11.67 2.98 11.34 4.96 11 7 C6.05 7.33 1.1 7.66 -4 8 C-2.68 5.36 -1.36 2.72 0 0 Z " fill="#3C294A" transform="translate(46,76)"/>
<path d="M0 0 C1.98510058 1.63707833 2.91847304 2.50096147 3.34057617 5.0847168 C3.32486572 5.86500244 3.30915527 6.64528809 3.29296875 7.44921875 C3.28330078 8.29677734 3.27363281 9.14433594 3.26367188 10.01757812 C3.23853516 10.89865234 3.21339844 11.77972656 3.1875 12.6875 C3.17396484 13.58017578 3.16042969 14.47285156 3.14648438 15.39257812 C3.11114079 17.59566166 3.06180493 19.79752582 3 22 C-0.47813417 18.60640795 -1.91261287 16.54500453 -2.1953125 11.546875 C-2.17210937 10.29390625 -2.14890625 9.0409375 -2.125 7.75 C-2.10695312 6.48671875 -2.08890625 5.2234375 -2.0703125 3.921875 C-2.04710937 2.95765625 -2.02390625 1.9934375 -2 1 C-1.34 0.67 -0.68 0.34 0 0 Z " fill="#3C2447" transform="translate(59,50)"/>
<path d="M0 0 C0 0.66 0 1.32 0 2 C0.66 2 1.32 2 2 2 C2 3.98 2 5.96 2 8 C1.34 8 0.68 8 0 8 C-0.12375 8.928125 -0.2475 9.85625 -0.375 10.8125 C-1 14 -1 14 -3 17 C-3.66 17 -4.32 17 -5 17 C-5.2765289 14.92002174 -5.52030075 12.8356692 -5.75 10.75 C-5.88921875 9.58984375 -6.0284375 8.4296875 -6.171875 7.234375 C-6 4 -6 4 -4.140625 1.578125 C-2 0 -2 0 0 0 Z " fill="#40264A" transform="translate(76,42)"/>
<path d="M0 0 C0.556875 0.268125 1.11375 0.53625 1.6875 0.8125 C1.6875 1.4725 1.6875 2.1325 1.6875 2.8125 C2.3475 2.8125 3.0075 2.8125 3.6875 2.8125 C3.8125 5.1875 3.8125 5.1875 3.6875 7.8125 C3.0275 8.4725 2.3675 9.1325 1.6875 9.8125 C-0.4765625 9.7890625 -0.4765625 9.7890625 -2.9375 9.4375 C-4.16339844 9.27121094 -4.16339844 9.27121094 -5.4140625 9.1015625 C-6.35378906 8.95847656 -6.35378906 8.95847656 -7.3125 8.8125 C-7.3125 4.8125 -7.3125 4.8125 -5.0625 2 C-2.3125 -0.1875 -2.3125 -0.1875 0 0 Z " fill="#449192" transform="translate(37.3125,38.1875)"/>
<path d="M0 0 C1.98 0 3.96 0 6 0 C6.33 3.96 6.66 7.92 7 12 C4.03 12.66 1.06 13.32 -2 14 C-1.34 13.67 -0.68 13.34 0 13 C0 8.71 0 4.42 0 0 Z " fill="#DAD3DC" transform="translate(72,63)"/>
<path d="M0 0 C0.99 0 1.98 0 3 0 C3.25523438 1.03060547 3.25523438 1.03060547 3.515625 2.08203125 C3.75796875 2.98308594 4.0003125 3.88414063 4.25 4.8125 C4.48203125 5.70582031 4.7140625 6.59914063 4.953125 7.51953125 C6.15888432 10.37646099 7.40101703 11.38369034 10 13 C10.33 12.01 10.66 11.02 11 10 C11 11.98 11 13.96 11 16 C9.68 16 8.36 16 7 16 C7 15.34 7 14.68 7 14 C6.01 14 5.02 14 4 14 C4 13.01 4 12.02 4 11 C3.34 11 2.68 11 2 11 C0.80712589 7.12315913 0 4.08378077 0 0 Z " fill="#C87FA3" transform="translate(46,46)"/>
<path d="M0 0 C0.103125 0.61875 0.20625 1.2375 0.3125 1.875 C0.87525373 4.36526484 0.87525373 4.36526484 4 6 C-4.415 6.495 -4.415 6.495 -13 7 C-13.33 6.01 -13.66 5.02 -14 4 C-12.0429132 3.32968281 -10.08428887 2.66385317 -8.125 2 C-7.03445312 1.62875 -5.94390625 1.2575 -4.8203125 0.875 C-2 0 -2 0 0 0 Z " fill="#4F3D59" transform="translate(81,74)"/>
<path d="M0 0 C1.98 0.495 1.98 0.495 4 1 C4 1.66 4 2.32 4 3 C4.86625 3.37125 4.86625 3.37125 5.75 3.75 C10.19130435 6.2173913 10.19130435 6.2173913 12 9 C11.7291546 12.44515349 10.93767066 15.68013902 10 19 C9.67 19 9.34 19 9 19 C9.06960937 18.11248047 9.06960937 18.11248047 9.140625 17.20703125 C9.33369653 12.98014382 9.4219755 10.6751608 7.125 7 C5.16362866 4.96208604 5.16362866 4.96208604 3 4 C2.67 5.65 2.34 7.3 2 9 C1.01 8.67 0.02 8.34 -1 8 C-0.67 5.36 -0.34 2.72 0 0 Z " fill="#686A7E" transform="translate(47,37)"/>
<path d="M0 0 C0.66 0 1.32 0 2 0 C2 4.29 2 8.58 2 13 C-0.31 13 -2.62 13 -5 13 C-4.34 10.69 -3.68 8.38 -3 6 C-2.34 6 -1.68 6 -1 6 C-0.67 4.02 -0.34 2.04 0 0 Z " fill="#503A59" transform="translate(70,63)"/>
<path d="M0 0 C0.66 0.33 1.32 0.66 2 1 C2.6158968 8.26758219 2.6158968 8.26758219 -0.3125 11.75 C-1.6428125 12.86375 -1.6428125 12.86375 -3 14 C-4.95158486 15.7677812 -4.95158486 15.7677812 -6 18 C-5.75333604 21.56007221 -5.75333604 21.56007221 -5 25 C-5 25.99 -5 26.98 -5 28 C-7.47323533 26.1719565 -8.08574986 24.75704206 -9.125 21.8125 C-8.94183245 16.22588977 -5.89052027 13.74439744 -2 10 C-0.41727399 8.41727399 -0.65264253 6.61965997 -0.4375 4.4375 C-0.35371094 3.61121094 -0.26992188 2.78492188 -0.18359375 1.93359375 C-0.12300781 1.29550781 -0.06242187 0.65742187 0 0 Z " fill="#A8658A" transform="translate(43,35)"/>
<path d="M0 0 C0.33 0 0.66 0 1 0 C1.06058594 1.13179687 1.12117188 2.26359375 1.18359375 3.4296875 C1.26799917 4.91147145 1.35264717 6.3932416 1.4375 7.875 C1.47681641 8.62136719 1.51613281 9.36773437 1.55664062 10.13671875 C1.71573624 14.19986864 1.71573624 14.19986864 3 18 C2.67 18.66 2.34 19.32 2 20 C3.65 20 5.3 20 7 20 C6.67 20.66 6.34 21.32 6 22 C5.34 22 4.68 22 4 22 C4 22.66 4 23.32 4 24 C3.01 23.67 2.02 23.34 1 23 C1 21.35 1 19.7 1 18 C0.01 18.33 -0.98 18.66 -2 19 C-6.06153846 13.58461538 -6.06153846 13.58461538 -5.75 10.625 C-5.5025 10.08875 -5.255 9.5525 -5 9 C-2 14.75 -2 14.75 -2 17 C-1.34 17 -0.68 17 0 17 C0 11.39 0 5.78 0 0 Z " fill="#516E7D" transform="translate(63,56)"/>
<path d="M0 0 C2 1.8125 2 1.8125 4 4 C4 4.99 4 5.98 4 7 C5.65 6.34 7.3 5.68 9 5 C8.89171875 5.85271484 8.89171875 5.85271484 8.78125 6.72265625 C8.20416899 11.52364968 7.89714162 16.16565627 8 21 C7.34 21.33 6.68 21.66 6 22 C5.97421875 21.28714844 5.9484375 20.57429688 5.921875 19.83984375 C5.54346928 13.44994714 4.75213309 9.23024613 1 4 C0.34 3.67 -0.32 3.34 -1 3 C-1.66 4.65 -2.32 6.3 -3 8 C-3.33 7.01 -3.66 6.02 -4 5 C-2.0625 2.3125 -2.0625 2.3125 0 0 Z " fill="#7C6B82" transform="translate(63,38)"/>
<path d="M0 0 C6.625 -0.25 6.625 -0.25 10 2 C9.34 2 8.68 2 8 2 C7.67 3.32 7.34 4.64 7 6 C4.69 6.33 2.38 6.66 0 7 C0 4.69 0 2.38 0 0 Z " fill="#CA80A1" transform="translate(53,29)"/>
<path d="M0 0 C0.99 0 1.98 0 3 0 C1.34464282 6.82207807 -0.62600732 12.83373752 -4 19 C-5.33032282 15.00903154 -4.32477646 12.93813391 -3.125 8.9375 C-2.75632812 7.68839844 -2.38765625 6.43929687 -2.0078125 5.15234375 C-1 2 -1 2 0 0 Z " fill="#345264" transform="translate(93,46)"/>
<path d="M0 0 C1.98 0.66 3.96 1.32 6 2 C5.01 2.495 5.01 2.495 4 3 C3.566875 4.4540625 3.566875 4.4540625 3.125 5.9375 C2 9 2 9 0 10.4375 C-2 11 -2 11 -4 10 C-5.32860925 9.64830932 -6.66158328 9.31229724 -8 9 C-8 8.34 -8 7.68 -8 7 C-6.02 7 -4.04 7 -2 7 C-1.34 4.69 -0.68 2.38 0 0 Z " fill="#615F75" transform="translate(42,73)"/>
<path d="M0 0 C0.43570313 0.37511719 0.87140625 0.75023437 1.3203125 1.13671875 C5.18607599 4.45859777 9.07657648 7.74642927 13 11 C12.01 11.495 12.01 11.495 11 12 C10.48953125 11.59007813 9.9790625 11.18015625 9.453125 10.7578125 C3.21360274 6.13348572 -2.32963047 4.75276046 -10 4 C-10 3.67 -10 3.34 -10 3 C-6.7 3 -3.4 3 0 3 C0 2.01 0 1.02 0 0 Z " fill="#BDC1C9" transform="translate(32,62)"/>
<path d="M0 0 C0.99 0.33 1.98 0.66 3 1 C2.74379316 2.6065676 2.46944129 4.2102483 2.1875 5.8125 C2.03667969 6.70582031 1.88585937 7.59914063 1.73046875 8.51953125 C0.94604607 11.18321256 0.11372201 12.25690322 -2 14 C-2 13.34 -2 12.68 -2 12 C-2.66 11.67 -3.32 11.34 -4 11 C-3.34 9.02 -2.68 7.04 -2 5 C-1.34 5 -0.68 5 0 5 C-0.2784375 4.0409375 -0.2784375 4.0409375 -0.5625 3.0625 C-0.706875 2.381875 -0.85125 1.70125 -1 1 C-0.67 0.67 -0.34 0.34 0 0 Z " fill="#A96288" transform="translate(78,45)"/>
<path d="M0 0 C3.96 0 7.92 0 12 0 C12 0.66 12 1.32 12 2 C14.31 2.33 16.62 2.66 19 3 C19 3.33 19 3.66 19 4 C12.2718373 4.22262303 6.46008837 3.95021536 0 2 C0 1.34 0 0.68 0 0 Z " fill="#869DA8" transform="translate(73,83)"/>
<path d="M0 0 C-3.42298182 3.42298182 -8.06394189 3.91199736 -12.75 4.125 C-15.17007854 4.125 -17.58168642 4.08920009 -20 4 C-20 3.67 -20 3.34 -20 3 C-13.12418702 0.8408662 -7.21471629 -0.35482211 0 0 Z " fill="#73A4A6" transform="translate(55,83)"/>
<path d="M0 0 C0.33 2.31 0.66 4.62 1 7 C0.01 7.33 -0.98 7.66 -2 8 C-2.66 7.67 -3.32 7.34 -4 7 C-4 6.34 -4 5.68 -4 5 C-5.32 5.33 -6.64 5.66 -8 6 C-3.375 0 -3.375 0 0 0 Z " fill="#566478" transform="translate(80,37)"/>
<path d="M0 0 C1.32 0.33 2.64 0.66 4 1 C4 2.65 4 4.3 4 6 C4.99 6 5.98 6 7 6 C7 6.66 7 7.32 7 8 C4.69 8 2.38 8 0 8 C0 5.36 0 2.72 0 0 Z " fill="#B1868B" transform="translate(93,72)"/>
<path d="M0 0 C0 1.65 0 3.3 0 5 C-3.3 5.66 -6.6 6.32 -10 7 C-8.34456271 3.50518795 -7.51166769 2.21490043 -3.875 0.6875 C-1 0 -1 0 0 0 Z " fill="#D15269" transform="translate(95,24)"/>
<path d="M0 0 C0.33 0.99 0.66 1.98 1 3 C-0.32 4.32 -1.64 5.64 -3 7 C-1.62845496 9.95409701 -0.01136276 12.44008376 2 15 C-1.35915158 13.56036361 -3.71624938 11.87583411 -6 9 C-6.10654689 5.69704631 -4.70826336 4.68691678 -2.4375 2.25 C-1.633125 1.5075 -0.82875 0.765 0 0 Z " fill="#9AD6E4" transform="translate(10,56)"/>
<path d="M0 0 C1.32 0 2.64 0 4 0 C4.33 0.99 4.66 1.98 5 3 C2.03 5.475 2.03 5.475 -1 8 C-1.66 7.67 -2.32 7.34 -3 7 C-2.01 4.69 -1.02 2.38 0 0 Z " fill="#A8A28A" transform="translate(84,66)"/>
<path d="M0 0 C2.31 0 4.62 0 7 0 C6.67 1.32 6.34 2.64 6 4 C4.02 4 2.04 4 0 4 C0 2.68 0 1.36 0 0 Z " fill="#D0A7BB" transform="translate(78,80)"/>
<path d="M0 0 C0.66 0.33 1.32 0.66 2 1 C-4.36363636 6 -4.36363636 6 -9 6 C-9 5.34 -9 4.68 -9 4 C-9.99 3.67 -10.98 3.34 -12 3 C-10.82630859 2.80083984 -10.82630859 2.80083984 -9.62890625 2.59765625 C-8.61699219 2.42105469 -7.60507813 2.24445313 -6.5625 2.0625 C-5.55316406 1.88847656 -4.54382813 1.71445313 -3.50390625 1.53515625 C-1.0712562 1.25248903 -1.0712562 1.25248903 0 0 Z " fill="#64546A" transform="translate(105,79)"/>
<path d="M0 0 C1.32 0.33 2.64 0.66 4 1 C3.67 3.97 3.34 6.94 3 10 C2.01 10 1.02 10 0 10 C0 6.7 0 3.4 0 0 Z " fill="#6A637A" transform="translate(30,67)"/>
<path d="M0 0 C0.66 0 1.32 0 2 0 C1.64950425 3.24208567 1.43778819 4.61527704 -1.0625 6.8125 C-1.701875 7.204375 -2.34125 7.59625 -3 8 C-3.66 7.67 -4.32 7.34 -5 7 C-4.67 5.68 -4.34 4.36 -4 3 C-5.32 2.67 -6.64 2.34 -8 2 C-5.36 2.33 -2.72 2.66 0 3 C0 2.01 0 1.02 0 0 Z " fill="#839AA2" transform="translate(62,74)"/>
<path d="M0 0 C-0.66 1.65 -1.32 3.3 -2 5 C-2.99 5 -3.98 5 -5 5 C-4.67 3.68 -4.34 2.36 -4 1 C-5.94074861 1.27617533 -5.94074861 1.27617533 -8 2 C-8.66 2.99 -9.32 3.98 -10 5 C-9.67 3.35 -9.34 1.7 -9 0 C-3.375 -1.125 -3.375 -1.125 0 0 Z " fill="#756D77" transform="translate(92,65)"/>
<path d="M0 0 C0.99 0 1.98 0 3 0 C3.33 1.98 3.66 3.96 4 6 C2.35 6.33 0.7 6.66 -1 7 C-0.67 4.69 -0.34 2.38 0 0 Z " fill="#A398A8" transform="translate(90,35)"/>
<path d="M0 0 C0.99 0.66 1.98 1.32 3 2 C2.34 2 1.68 2 1 2 C0.34 5.3 -0.32 8.6 -1 12 C-1.33 11.34 -1.66 10.68 -2 10 C-2.66 10 -3.32 10 -4 10 C-3.34 7.36 -2.68 4.72 -2 2 C-1.34 2 -0.68 2 0 2 C0 1.34 0 0.68 0 0 Z " fill="#593C5C" transform="translate(54,24)"/>
<path d="M0 0 C3.875 0.875 3.875 0.875 5 2 C5.04080783 3.99958364 5.04254356 6.00045254 5 8 C5.66 8.33 6.32 8.66 7 9 C6.01 9 5.02 9 4 9 C3.67 7.35 3.34 5.7 3 4 C1.35 4 -0.3 4 -2 4 C-1.34 2.68 -0.68 1.36 0 0 Z " fill="#85586C" transform="translate(93,69)"/>
<path d="M0 0 C1.1875 1.6875 1.1875 1.6875 2 4 C0.8125 6.75 0.8125 6.75 -1 9 C-1.99 9 -2.98 9 -4 9 C-3.25 4.25 -3.25 4.25 -1 2 C-0.67 1.34 -0.34 0.68 0 0 Z " fill="#42475F" transform="translate(90,40)"/>
<path d="M0 0 C4.66597938 4.21443299 4.66597938 4.21443299 5 8 C4.72949547 10.00946222 4.40632091 12.01354224 4 14 C3.67 14 3.34 14 3 14 C2.67 10.7 2.34 7.4 2 4 C1.01 4 0.02 4 -1 4 C-0.67 2.68 -0.34 1.36 0 0 Z " fill="#644162" transform="translate(70,22)"/>
<path d="M0 0 C1.98 0 3.96 0 6 0 C6 0.66 6 1.32 6 2 C7.32 2 8.64 2 10 2 C9.67 2.99 9.34 3.98 9 5 C7.68428397 4.7452486 6.37239624 4.47065859 5.0625 4.1875 C4.33160156 4.03667969 3.60070313 3.88585937 2.84765625 3.73046875 C2.23792969 3.48941406 1.62820312 3.24835938 1 3 C0.67 2.01 0.34 1.02 0 0 Z " fill="#99728E" transform="translate(44,72)"/>
<path d="M0 0 C-1.485 1.98 -1.485 1.98 -3 4 C-4.65 3.67 -6.3 3.34 -8 3 C-8.33 3.66 -8.66 4.32 -9 5 C-9 4.01 -9 3.02 -9 2 C-5.5647952 -0.29013653 -4.014669 -0.17842973 0 0 Z " fill="#B2698E" transform="translate(66,22)"/>
<path d="M0 0 C0 1.98 0 3.96 0 6 C-1.65 6 -3.3 6 -5 6 C-4.6875 4.125 -4.6875 4.125 -4 2 C-1 0 -1 0 0 0 Z " fill="#3D2448" transform="translate(71,69)"/>
<path d="M0 0 C0.33 0.66 0.66 1.32 1 2 C0.67 2.66 0.34 3.32 0 4 C1.65 4 3.3 4 5 4 C4.67 4.66 4.34 5.32 4 6 C3.34 6 2.68 6 2 6 C2 6.66 2 7.32 2 8 C1.01 7.67 0.02 7.34 -1 7 C-1.04254356 5.00045254 -1.04080783 2.99958364 -1 1 C-0.67 0.67 -0.34 0.34 0 0 Z " fill="#767A8B" transform="translate(65,72)"/>
<path d="M0 0 C4 4.75 4 4.75 4 7 C1.36 6.67 -1.28 6.34 -4 6 C-2.68 5.67 -1.36 5.34 0 5 C-0.2784375 4.0409375 -0.2784375 4.0409375 -0.5625 3.0625 C-0.706875 2.381875 -0.85125 1.70125 -1 1 C-0.67 0.67 -0.34 0.34 0 0 Z " fill="#553A5B" transform="translate(58,70)"/>
<path d="M0 0 C-0.33 1.32 -0.66 2.64 -1 4 C-3.64 4 -6.28 4 -9 4 C-6.43425105 1.43425105 -3.68548192 0 0 0 Z " fill="#3D6C76" transform="translate(58,79)"/>
<path d="M0 0 C0.99 0.33 1.98 0.66 3 1 C2.67 2.98 2.34 4.96 2 7 C1.01 7 0.02 7 -1 7 C-1.04254356 5.00045254 -1.04080783 2.99958364 -1 1 C-0.67 0.67 -0.34 0.34 0 0 Z " fill="#C2769A" transform="translate(78,45)"/>
<path d="M0 0 C0 0.66 0 1.32 0 2 C0.66 2.33 1.32 2.66 2 3 C1.01 3 0.02 3 -1 3 C-1.99 4.485 -1.99 4.485 -3 6 C-3.185625 5.071875 -3.185625 5.071875 -3.375 4.125 C-3.87197356 1.80879168 -3.87197356 1.80879168 -6 0 C-3.50907189 -1.24546405 -2.58919267 -0.7767578 0 0 Z " fill="#3E868A" transform="translate(39,39)"/>
<path d="M0 0 C2.3431213 0.25561323 4.67843403 0.59270772 7 1 C7.33 1.66 7.66 2.32 8 3 C6.906875 2.979375 5.81375 2.95875 4.6875 2.9375 C1.05615809 2.81455548 1.05615809 2.81455548 -2 4 C-1.34 2.68 -0.68 1.36 0 0 Z " fill="#ED9DBB" transform="translate(38,10)"/>
<path d="M0 0 C0.99 0 1.98 0 3 0 C2.64950425 3.24208567 2.43778819 4.61527704 -0.0625 6.8125 C-0.701875 7.204375 -1.34125 7.59625 -2 8 C-1.125 2.25 -1.125 2.25 0 0 Z " fill="#36435A" transform="translate(93,46)"/>
<path d="M0 0 C0.99 0.33 1.98 0.66 3 1 C3 2.65 3 4.3 3 6 C1.68 6 0.36 6 -1 6 C-0.67 4.02 -0.34 2.04 0 0 Z " fill="#CD8E55" transform="translate(62,47)"/>
<path d="M0 0 C-3.00617269 3.00617269 -5.82381598 2.59585316 -10 3 C-7.29536552 -0.8183075 -4.37912428 -0.24787496 0 0 Z " fill="#60A4AA" transform="translate(55,83)"/>
<path d="M0 0 C0.99 0.33 1.98 0.66 3 1 C3 2.98 3 4.96 3 7 C2.01 7.33 1.02 7.66 0 8 C0 5.36 0 2.72 0 0 Z " fill="#4A9E9A" transform="translate(33,40)"/>
</svg>
